<svg viewBox="0 0 20 24" fill="none" aria-hidden="true" class="w-[1.875rem]"><path d="m19.116 3.16-2.88 2.881a.571.571 0 0 1-.701.084 6.854 6.854 0 0 0-10.39 5.647 6.867 6.867 0 0 0 .979 3.764.571.571 0 0 1-.084.699l-2.88 2.88a.57.57 0 0 1-.865-.063A11.994 11.994 0 0 1 19.051 2.295a.57.57 0 0 1 .065.866z" fill="url(#a)"/><path d="m19.113 20.829-2.88-2.88a.571.571 0 0 0-.7-.085 6.854 6.854 0 0 1-7.081 0 .571.571 0 0 0-.7.084l-2.881 2.88a.57.57 0 0 0 .062.877 11.994 11.994 0 0 0 14.114 0 .571.571 0 0 0 .066-.876zM11.997 15.422a3.427 3.427 0 1 0 0-6.854 3.427 3.427 0 0 0 0 6.854z" fill="#1F0256"/><defs><linearGradient id="a" x1="16.409" y1="-1.759" x2="-7.885" y2="22.537" gradientUnits="userSpaceOnUse"><stop stop-color="#17CCFC"/><stop offset=".5" stop-color="#5D31FF"/><stop offset="1" stop-color="#F35AFF"/></linearGradient></defs></svg>